<svg width="210" height="56" viewBox="0 0 210 56" fill="none" xmlns="http://www.w3.org/2000/svg" role="img" aria-labelledby="title">
  <title id="title">Eventic</title>
  <rect x="1" y="1" width="54" height="54" rx="18" fill="#1C1917"/>
  <path d="M16 19C16 15.6863 18.6863 13 22 13H38V20H24V24.5H37V31H24V36H39V43H22C18.6863 43 16 40.3137 16 37V19Z" fill="#FAFAF9"/>
  <rect x="42" y="13" width="7" height="7" rx="2" fill="#A16207"/>
  <rect x="42" y="25" width="7" height="18" rx="2" fill="#A16207"/>
  <text x="68" y="38" fill="#1C1917" font-family="Arial, Helvetica, sans-serif" font-size="30" font-weight="800" letter-spacing="-1">Eventic</text>
  <rect x="181" y="15" width="8" height="8" rx="2" fill="#A16207"/>
  <rect x="193" y="15" width="8" height="8" rx="2" fill="#D6D3D1"/>
  <rect x="181" y="33" width="20" height="6" rx="3" fill="#A16207"/>
</svg>
